<svg width="40" height="40" viewBox="0 0 40 40" fill="none" xmlns="http://www.w3.org/2000/svg">
<path d="M13.332 33.3359H23.332V36.6693H9.9987V33.3359H6.66536V30.0026H13.332V33.3359ZM33.332 30.0026H36.6654V33.3359H33.332V36.6693H29.9987V33.3359H26.6654V30.0026H29.9987V26.6693H33.332V30.0026ZM6.66536 30.0026H3.33203V10.0026H6.66536V30.0026ZM23.332 30.0026H13.332V26.6693H23.332V30.0026ZM23.332 23.3359H16.6654V20.0026H23.332V23.3359ZM36.6654 23.3359H33.332V10.0026H36.6654V23.3359ZM16.6654 20.0026H13.332V13.3359H16.6654V20.0026ZM26.6654 20.0026H23.332V13.3359H26.6654V20.0026ZM23.332 13.3359H16.6654V10.0026H23.332V13.3359ZM9.9987 10.0026H6.66536V6.66927H9.9987V10.0026ZM33.332 10.0026H29.9987V6.66927H33.332V10.0026ZM29.9987 6.66927H9.9987V3.33594H29.9987V6.66927Z" fill="#CEE2FF"/>
</svg>
